<svg width="195" height="55" viewBox="0 0 195 55" fill="none" xmlns="http://www.w3.org/2000/svg">
<path d="M5.16317 0.599556V16.1556H1.47461V0.599556H5.16317ZM14.1119 0.599556L9.14039 7.59178L14.4968 16.1556H10.2309L5.25939 7.84837L10.1988 0.599556H14.1119Z" fill="white"/>
<path d="M19.9493 0.599556V13.2369H26.0114L25.6265 16.1556H16.2607V0.599556H19.9493Z" fill="white"/>
<path d="M36.5319 16.1556L35.7301 12.8199H31.2076L30.4057 16.1556H26.5889L31.2717 0.599556H35.7301L40.4129 16.1556H36.5319ZM31.817 10.1257H35.0886L33.4528 3.26173L31.817 10.1257Z" fill="white"/>
<path d="M50.1955 0.695782C51.0615 1.01653 51.8313 1.52972 52.5369 2.20328L50.837 4.19189C49.7785 3.32588 48.6238 2.87684 47.4371 2.87684C46.7956 2.87684 46.2824 3.00514 45.8975 3.26173C45.5126 3.51833 45.3202 3.90322 45.3202 4.38434C45.3202 4.73716 45.4164 4.99375 45.5768 5.21827C45.7371 5.44279 46.0258 5.63524 46.4428 5.82769C46.8597 6.02013 47.5012 6.24465 48.3352 6.53332C49.9068 7.04651 51.0936 7.65593 51.8313 8.39364C52.569 9.13135 52.9539 10.1898 52.9539 11.5369C52.9539 12.4992 52.6973 13.3652 52.2162 14.1029C51.735 14.8406 50.9973 15.4179 50.0672 15.8349C49.137 16.2519 48.0465 16.4443 46.7635 16.4443C45.4805 16.4443 44.3579 16.2519 43.3957 15.8349C42.4014 15.4179 41.5675 14.9047 40.8618 14.2312L42.7221 12.1784C43.3315 12.6916 43.941 13.0765 44.5824 13.3331C45.2239 13.5897 45.8975 13.718 46.6673 13.718C47.4371 13.718 48.0465 13.5576 48.4635 13.2048C48.9125 12.8841 49.137 12.4029 49.137 11.7935C49.137 11.4086 49.0408 11.0879 48.8804 10.8313C48.72 10.5747 48.4314 10.3181 48.0144 10.1257C47.5974 9.90114 47.0201 9.67661 46.2503 9.45209C44.5183 8.9389 43.2995 8.29741 42.5938 7.52763C41.8882 6.75784 41.5033 5.79561 41.5033 4.64093C41.5033 3.74285 41.7278 2.94099 42.2089 2.26743C42.6901 1.59386 43.3636 1.0486 44.1976 0.695782C45.0636 0.342963 46.0258 0.150513 47.0843 0.150513C48.3352 0.214662 49.3295 0.375037 50.1955 0.695782Z" fill="white"/>
<path d="M65.7194 0.599556L65.3666 3.42211H61.5177V16.1556H57.8291V3.42211H53.8198V0.599556H65.7194Z" fill="white"/>
<path d="M77.2984 0.599556L76.9135 3.22966H71.4288V6.95029H76.2079V9.51624H71.4288V13.4935H77.2984V16.1556H67.7402V0.599556H77.2984Z" fill="white"/>
<path d="M85.253 10.1898H83.8097V16.1236H80.1211V0.567482H85.2209C87.3378 0.567482 88.9416 0.952377 90 1.72216C91.0585 2.49195 91.6037 3.6787 91.6037 5.28242C91.6037 6.27673 91.3792 7.11066 90.8981 7.78422C90.417 8.45779 89.6472 9.00305 88.6208 9.48417L92.566 16.1236H88.3963L85.253 10.1898ZM83.8097 7.65593H85.3492C86.1832 7.65593 86.7926 7.46348 87.2095 7.07859C87.6265 6.6937 87.819 6.11636 87.819 5.3145C87.819 4.57678 87.5944 4.03152 87.1454 3.6787C86.6964 3.32588 86.0228 3.16551 85.1247 3.16551H83.8097V7.65593V7.65593Z" fill="white"/>
<path d="M9.58942 25.361L8.27437 26.7402C7.88948 26.4515 7.50458 26.227 7.18384 26.0987C6.83102 25.9704 6.44613 25.9063 6.02916 25.9063C5.19523 25.9063 4.55374 26.227 4.07262 26.8685C3.5915 27.51 3.33491 28.5043 3.33491 29.8193C3.33491 31.2306 3.52736 32.257 3.91225 32.8343C4.29714 33.4117 4.87448 33.7324 5.67634 33.7324C6.22161 33.7324 6.7348 33.6041 7.18384 33.3796V30.8457H5.74049L5.4839 28.9854H9.65357V34.5022C9.07623 34.8871 8.43474 35.1758 7.72911 35.3682C7.02347 35.5607 6.34991 35.6569 5.64427 35.6569C3.94432 35.6569 2.69342 35.1758 1.82741 34.1815C0.961401 33.1872 0.544434 31.7438 0.544434 29.8193C0.544434 28.6005 0.768955 27.5421 1.25007 26.6761C1.69911 25.81 2.3406 25.1365 3.14246 24.6874C3.94432 24.2384 4.84241 24.0139 5.86879 24.0139C7.31214 24.0139 8.56304 24.4629 9.58942 25.361Z" fill="white"/>
<path d="M20.0136 25.5214C20.9117 26.5478 21.3287 27.959 21.3287 29.8194C21.3287 31.0382 21.1362 32.0646 20.7193 32.9627C20.3023 33.8607 19.757 34.5022 18.9873 34.9833C18.2175 35.4645 17.3515 35.689 16.293 35.689C15.2666 35.689 14.3685 35.4645 13.5988 35.0154C12.861 34.5664 12.2837 33.8928 11.8667 33.0268C11.4818 32.1608 11.2573 31.1023 11.2573 29.8835C11.2573 28.6968 11.4498 27.6383 11.8667 26.7723C12.2837 25.9063 12.829 25.2327 13.5988 24.7516C14.3365 24.2705 15.2346 24.046 16.293 24.046C17.8967 24.0139 19.1156 24.5271 20.0136 25.5214ZM14.6251 26.8364C14.2723 27.4458 14.0799 28.4402 14.0799 29.8194C14.0799 31.1986 14.2723 32.1929 14.6572 32.8023C15.0421 33.4117 15.5874 33.7324 16.3251 33.7324C17.0949 33.7324 17.6722 33.4117 18.025 32.8023C18.3778 32.1929 18.5703 31.1986 18.5703 29.8194C18.5703 28.4402 18.3778 27.4458 17.993 26.8364C17.6081 26.227 17.0628 25.9384 16.293 25.9384C15.5553 25.9384 14.978 26.227 14.6251 26.8364Z" fill="white"/>
<path d="M29.0583 24.3667C29.6678 24.5912 30.2451 24.9761 30.7262 25.4572L29.5074 26.9006C28.7376 26.2912 27.9357 25.9704 27.0697 25.9704C26.6207 25.9704 26.2358 26.0666 25.9792 26.2591C25.7226 26.4515 25.5943 26.7081 25.5943 27.0609C25.5943 27.3175 25.6585 27.51 25.7547 27.6704C25.883 27.8307 26.0754 27.959 26.3962 28.1194C26.6848 28.2477 27.1339 28.4081 27.7433 28.6005C28.8659 28.9533 29.6998 29.4024 30.2451 29.9476C30.7904 30.4929 31.047 31.2306 31.047 32.1928C31.047 32.8985 30.8866 33.5079 30.5338 34.0211C30.181 34.5343 29.6678 34.9512 28.9942 35.2399C28.3206 35.5286 27.5508 35.689 26.6207 35.689C25.7226 35.689 24.9207 35.5607 24.2151 35.272C23.5095 34.9833 22.9001 34.5984 22.4189 34.1173L23.734 32.6419C24.151 32.9947 24.6 33.2834 25.049 33.4758C25.4981 33.6683 26.0113 33.7324 26.5245 33.7324C27.0697 33.7324 27.4867 33.6041 27.8074 33.3796C28.1282 33.123 28.2886 32.8023 28.2886 32.3853C28.2886 32.0966 28.2244 31.8721 28.0961 31.6797C27.9678 31.4872 27.7754 31.3268 27.4867 31.1665C27.198 31.0061 26.7811 30.8457 26.2358 30.6854C25.017 30.3005 24.1189 29.8514 23.6057 29.3062C23.0925 28.7609 22.8359 28.0553 22.8359 27.2213C22.8359 26.5798 22.9963 26.0025 23.3491 25.5214C23.7019 25.0403 24.151 24.6554 24.7924 24.3988C25.4019 24.1422 26.0754 24.0139 26.8452 24.0139C27.7112 24.0139 28.4489 24.1101 29.0583 24.3667Z" fill="white"/>
<path d="M39.8676 25.2006C40.6694 25.81 41.0864 26.7081 41.0864 27.927C41.0864 29.1779 40.7015 30.108 39.8996 30.7495C39.0978 31.391 38.0393 31.7117 36.6922 31.7117H35.4734V35.4003H32.8433V24.2705H36.4356C37.9431 24.2705 39.0657 24.5912 39.8676 25.2006ZM37.911 29.3382C38.2318 29.0496 38.3921 28.5684 38.3921 27.8949C38.3921 26.7402 37.7506 26.1308 36.4356 26.1308H35.5054V29.7552H36.4677C37.1092 29.7873 37.5903 29.659 37.911 29.3382Z" fill="white"/>
<path d="M51.0939 25.5214C51.9919 26.5478 52.4089 27.959 52.4089 29.8194C52.4089 31.0382 52.2165 32.0646 51.7995 32.9627C51.3825 33.8607 50.8052 34.5022 50.0675 34.9833C49.3298 35.4645 48.4317 35.689 47.3732 35.689C46.3469 35.689 45.4488 35.4645 44.7111 35.0154C43.9733 34.5664 43.396 33.8928 42.979 33.0268C42.5941 32.1608 42.3696 31.1023 42.3696 29.8835C42.3696 28.6968 42.5621 27.6383 42.979 26.7723C43.396 25.9063 43.9413 25.2327 44.7111 24.7516C45.4488 24.2705 46.3469 24.046 47.3732 24.046C48.977 24.0139 50.1958 24.5271 51.0939 25.5214ZM45.7054 26.8364C45.3525 27.4458 45.1601 28.4402 45.1601 29.8194C45.1601 31.1986 45.3525 32.1929 45.7374 32.8023C46.1223 33.4117 46.6676 33.7324 47.4053 33.7324C48.1751 33.7324 48.7524 33.4117 49.1052 32.8023C49.4581 32.1929 49.6505 31.1986 49.6505 29.8194C49.6505 28.4402 49.4581 27.4458 49.0732 26.8364C48.6883 26.227 48.143 25.9384 47.3732 25.9384C46.6355 25.9384 46.0582 26.227 45.7054 26.8364Z" fill="white"/>
<path d="M61.6784 25.4572C62.7368 26.227 63.25 27.6704 63.25 29.7873C63.25 31.84 62.7368 33.3155 61.7104 34.1494C60.684 34.9833 59.369 35.4003 57.7332 35.4003H54.3975V24.2705H57.5087C59.2086 24.2705 60.6199 24.6874 61.6784 25.4572ZM56.9955 26.1949V33.5079H57.8615C58.7275 33.5079 59.4011 33.2513 59.818 32.706C60.2671 32.1608 60.4916 31.1985 60.4916 29.8193C60.4916 28.8571 60.3633 28.1194 60.1388 27.6062C59.9143 27.093 59.6256 26.7081 59.2407 26.5157C58.8558 26.3232 58.3747 26.227 57.7974 26.227H56.9955V26.1949Z" fill="white"/>
<path d="M70.9159 35.4003L70.3386 32.9947H67.0991L66.5217 35.4003H63.7954L67.1632 24.2705H70.3707L73.7385 35.4003H70.9159ZM67.5481 31.1023H69.8895L68.7349 26.1949L67.5481 31.1023Z" fill="white"/>
<path d="M78.5813 31.1344H77.5549V35.3682H74.9248V24.2384H78.5492C80.0567 24.2384 81.2114 24.5271 81.9812 25.0723C82.751 25.6176 83.1358 26.4836 83.1358 27.6383C83.1358 28.3439 82.9755 28.9533 82.6227 29.4345C82.2698 29.9156 81.7246 30.3005 81.0189 30.6533L83.8415 35.4003H80.8586L78.5813 31.1344ZM77.5549 29.3382H78.6775C79.2548 29.3382 79.7039 29.2099 79.9926 28.9533C80.2812 28.6967 80.4416 28.2798 80.4416 27.7024C80.4416 27.1572 80.2812 26.7723 79.9605 26.5157C79.6397 26.2591 79.1586 26.1308 78.5171 26.1308H77.5549V29.3382Z" fill="white"/>
<path d="M87.8508 24.2705V35.4003H85.2207V24.2705H87.8508V24.2705ZM94.2336 24.2705L90.7054 29.2741L94.5544 35.4003H91.5073L87.9791 29.4665L91.5073 24.2705H94.2336V24.2705Z" fill="white"/>
<path d="M98.4035 24.2705V35.4003H95.7734V24.2705H98.4035V24.2705Z" fill="white"/>
<path d="M113.254 25.5214C114.152 26.5478 114.569 27.959 114.569 29.8194C114.569 31.0382 114.377 32.0646 113.96 32.9627C113.543 33.8607 112.965 34.5022 112.228 34.9833C111.49 35.4645 110.592 35.689 109.533 35.689C108.507 35.689 107.609 35.4645 106.871 35.0154C106.134 34.5664 105.556 33.8928 105.139 33.0268C104.754 32.1608 104.53 31.1023 104.53 29.8835C104.53 28.6968 104.722 27.6383 105.139 26.7723C105.556 25.9063 106.101 25.2327 106.871 24.7516C107.609 24.2705 108.507 24.046 109.533 24.046C111.137 24.0139 112.388 24.5271 113.254 25.5214ZM107.866 26.8364C107.481 27.4458 107.32 28.4402 107.32 29.8194C107.32 31.1986 107.513 32.1929 107.898 32.8023C108.282 33.4117 108.828 33.7324 109.565 33.7324C110.335 33.7324 110.913 33.4117 111.265 32.8023C111.65 32.1929 111.811 31.1986 111.811 29.8194C111.811 28.4402 111.618 27.4458 111.233 26.8364C110.848 26.227 110.303 25.9384 109.533 25.9384C108.796 25.9384 108.25 26.227 107.866 26.8364Z" fill="white"/>
<path d="M123.839 25.4572C124.897 26.227 125.41 27.6704 125.41 29.7873C125.41 31.84 124.897 33.3155 123.871 34.1494C122.844 34.9833 121.529 35.4003 119.893 35.4003H116.558V24.2705H119.669C121.401 24.2705 122.78 24.6874 123.839 25.4572ZM119.188 26.1949V33.5079H120.054C120.92 33.5079 121.593 33.2513 122.042 32.706C122.491 32.1608 122.716 31.1985 122.716 29.8193C122.716 28.8571 122.62 28.1194 122.363 27.6062C122.139 27.093 121.85 26.7081 121.465 26.5157C121.08 26.3232 120.599 26.227 120.054 26.227H119.188V26.1949Z" fill="white"/>
<path d="M134.391 25.2006C135.193 25.81 135.61 26.7081 135.61 27.927C135.61 29.1779 135.225 30.108 134.423 30.7495C133.621 31.391 132.563 31.7117 131.216 31.7117H129.997V35.4003H127.367V24.2705H130.959C132.467 24.2705 133.589 24.5912 134.391 25.2006ZM132.434 29.3382C132.755 29.0496 132.916 28.5684 132.916 27.8949C132.916 26.7402 132.274 26.1308 130.959 26.1308H130.029V29.7552H131.023C131.633 29.7873 132.114 29.659 132.434 29.3382Z" fill="white"/>
<path d="M142.313 35.4003L141.736 32.9947H138.497L137.919 35.4003H135.193L138.561 24.2705H141.736L145.104 35.4003H142.313ZM138.946 31.1023H141.287L140.1 26.1949L138.946 31.1023Z" fill="white"/>
<path d="M153.604 25.4572C154.662 26.227 155.175 27.6704 155.175 29.7873C155.175 31.84 154.662 33.3155 153.636 34.1494C152.609 34.9833 151.294 35.4003 149.658 35.4003H146.323V24.2705H149.434C151.166 24.2705 152.545 24.6874 153.604 25.4572ZM148.953 26.1949V33.5079H149.819C150.685 33.5079 151.358 33.2513 151.807 32.706C152.257 32.1608 152.481 31.1985 152.481 29.8193C152.481 28.8571 152.385 28.1194 152.128 27.6062C151.904 27.093 151.615 26.7081 151.23 26.5157C150.845 26.3232 150.364 26.227 149.819 26.227H148.953V26.1949Z" fill="white"/>
<path d="M165.343 25.5214C166.241 26.5478 166.658 27.959 166.658 29.8194C166.658 31.0382 166.465 32.0646 166.049 32.9627C165.632 33.8607 165.054 34.5022 164.317 34.9833C163.579 35.4645 162.681 35.689 161.622 35.689C160.596 35.689 159.698 35.4645 158.96 35.0154C158.222 34.5664 157.645 33.8928 157.228 33.0268C156.843 32.1608 156.619 31.1023 156.619 29.8835C156.619 28.6968 156.811 27.6383 157.228 26.7723C157.645 25.9063 158.19 25.2327 158.96 24.7516C159.698 24.2705 160.596 24.046 161.622 24.046C163.226 24.0139 164.477 24.5271 165.343 25.5214ZM159.954 26.8364C159.569 27.4458 159.409 28.4402 159.409 29.8194C159.409 31.1986 159.602 32.1929 159.986 32.8023C160.371 33.4117 160.917 33.7324 161.654 33.7324C162.424 33.7324 163.001 33.4117 163.354 32.8023C163.739 32.1929 163.9 31.1986 163.9 29.8194C163.9 28.4402 163.707 27.4458 163.322 26.8364C162.937 26.227 162.392 25.9384 161.622 25.9384C160.885 25.9384 160.339 26.227 159.954 26.8364Z" fill="white"/>
<path d="M181.027 24.2705L179.167 35.4003H175.735L174.356 26.9006L172.913 35.4003H169.577L167.749 24.2705H170.379L171.469 33.4117L173.009 24.2705H175.767L177.21 33.4117L178.526 24.2705H181.027V24.2705Z" fill="white"/>
<path d="M189.431 24.2705L189.174 26.1629H185.261V28.825H188.693V30.6854H185.261V33.5079H189.463V35.4003H182.663V24.2705H189.431V24.2705Z" fill="white"/>
<path d="M194.338 33.7004C194.338 34.5984 194.178 35.3041 193.857 35.8814C193.536 36.4588 193.119 36.9078 192.606 37.2285C192.093 37.5493 191.483 37.838 190.746 38.0625L190.04 36.2022C190.521 36.0097 190.874 35.8173 191.098 35.5607C191.323 35.3361 191.483 35.0475 191.58 34.7588C191.676 34.4701 191.708 34.0532 191.708 33.5721V24.2384H194.338V33.7004Z" fill="white"/>
<path d="M3.68772 43.5151V54.6449H1.05762V43.5151H3.68772Z" fill="white"/>
<path d="M14.0159 50.379H12.9895V54.6129H10.3594V43.483H14.0159C15.5234 43.483 16.678 43.7717 17.4478 44.317C18.2176 44.8622 18.6025 45.7283 18.6025 46.8829C18.6025 47.5886 18.4421 48.198 18.0893 48.6791C17.7365 49.1602 17.1912 49.5451 16.4856 49.8979L19.3081 54.6449H16.3573L14.0159 50.379ZM12.9895 48.5829H14.08C14.6573 48.5829 15.1064 48.4546 15.3951 48.198C15.6837 47.9414 15.8441 47.5244 15.8441 46.9471C15.8441 46.4018 15.6837 46.0169 15.363 45.7603C15.0422 45.5037 14.5611 45.3754 13.9196 45.3754H12.9895V48.5829Z" fill="white"/>
<path d="M27.4871 43.5151L27.1985 45.4075H23.2854V48.0697H26.6853V49.93H23.2854V52.7526H27.455V54.6449H20.6553V43.5151H27.4871Z" fill="white"/>
<path d="M35.6657 43.5472C36.211 43.7396 36.7241 44.0604 37.2053 44.4453L35.9544 45.9528C35.6336 45.6962 35.3129 45.5037 34.9921 45.3754C34.6714 45.2471 34.3186 45.183 33.9657 45.183C33.228 45.183 32.6186 45.5037 32.2016 46.1452C31.7526 46.7867 31.5602 47.7489 31.5602 49.064C31.5602 50.347 31.7847 51.3092 32.2016 51.9507C32.6186 52.5922 33.228 52.8808 33.9978 52.8808C34.4148 52.8808 34.7676 52.8167 35.0883 52.6563C35.4091 52.496 35.794 52.2714 36.1789 51.9828L37.3336 53.4903C36.9166 53.9072 36.4034 54.26 35.8261 54.5166C35.2487 54.7732 34.5752 54.9015 33.8695 54.9015C32.8431 54.9015 31.9451 54.677 31.2073 54.228C30.4376 53.7789 29.8602 53.1054 29.4432 52.2393C29.0263 51.3413 28.8018 50.2828 28.8018 49.064C28.8018 47.8452 29.0263 46.8188 29.4432 45.9207C29.8923 45.0547 30.4696 44.3811 31.2394 43.9321C32.0092 43.483 32.8752 43.2585 33.8374 43.2585C34.511 43.2585 35.1204 43.3547 35.6657 43.5472Z" fill="white"/>
<path d="M47.1808 43.5151L43.6205 50.4753V54.6449H40.9904V50.4753L37.4302 43.5151H40.2848L42.3376 48.3904L44.3903 43.5151H47.1808Z" fill="white"/>
<path d="M51.1579 43.5151V54.6449H48.5278V43.5151H51.1579ZM57.5407 43.5151L54.0126 48.5187L57.8615 54.6449H54.8144L51.2862 48.7112L54.8144 43.5151H57.5407V43.5151Z" fill="white"/>
<path d="M61.7102 43.5151V52.5601H66.0402L65.7516 54.6449H59.0801V43.5151H61.7102Z" fill="white"/>
<path d="M70.3386 43.5151V54.6449H67.7085V43.5151H70.3386Z" fill="white"/>
<path d="M81.372 54.6449H78.0042L74.7967 46.049C74.8929 46.8829 74.9892 47.6527 75.0533 48.2942C75.1175 48.9357 75.1495 49.7055 75.1495 50.6036V54.677H72.8081V43.5472H76.0797L79.3513 52.1752C79.1268 50.6998 78.9985 49.3206 78.9985 48.0376V43.5472H81.372V54.6449Z" fill="white"/>
<path d="M92.3414 44.6056L91.0263 45.9848C90.6414 45.6962 90.2565 45.4716 89.9358 45.3434C89.615 45.2151 89.1981 45.1509 88.7811 45.1509C87.9472 45.1509 87.3057 45.4717 86.8246 46.1131C86.3435 46.7546 86.0869 47.7489 86.0869 49.064C86.0869 50.4753 86.2793 51.5016 86.6642 52.079C87.0491 52.6563 87.6264 52.9771 88.3962 52.9771C88.9415 52.9771 89.4547 52.8488 89.9037 52.6242V50.0904H88.4604L88.2038 48.23H92.4055V53.7469C91.8282 54.1317 91.1867 54.4204 90.4811 54.6129C89.7754 54.8053 89.1019 54.9015 88.3962 54.9015C86.6963 54.9015 85.4454 54.4204 84.5794 53.4261C83.7134 52.4318 83.2964 50.9884 83.2964 49.064C83.2964 47.8452 83.5209 46.7867 84.002 45.9207C84.4831 45.0547 85.0925 44.3811 85.9265 43.9321C86.7283 43.483 87.6264 43.2585 88.6528 43.2585C90.0962 43.2585 91.315 43.7076 92.3414 44.6056Z" fill="white"/>
<path d="M103.086 50.9564C103.086 51.7262 102.926 52.3997 102.605 52.9771C102.284 53.5865 101.803 54.0355 101.13 54.3883C100.488 54.7412 99.6863 54.9015 98.7241 54.9015C97.3128 54.9015 96.2223 54.5487 95.5166 53.8431C94.7789 53.1374 94.394 52.1752 94.394 50.9564V43.5151H97.0241V50.8281C97.0241 51.5337 97.1524 52.079 97.4411 52.4318C97.7298 52.7846 98.1468 52.945 98.7241 52.945C99.3335 52.945 99.7505 52.7846 100.039 52.4318C100.296 52.079 100.456 51.5658 100.456 50.8281V43.5151H103.086V50.9564Z" fill="white"/>
</svg>
